<svg id="visual" viewBox="0 0 900 600" width="900" height="600" xmlns="http://www.w3.org/2000/svg" xmlns:xlink="http://www.w3.org/1999/xlink" version="1.1"><path d="M0 460L21.5 470.5C43 481 86 502 128.8 508.8C171.7 515.7 214.3 508.3 257.2 487C300 465.7 343 430.3 385.8 412.5C428.7 394.7 471.3 394.3 514.2 414.3C557 434.3 600 474.7 642.8 494.8C685.7 515 728.3 515 771.2 493C814 471 857 427 878.5 405L900 383L900 601L878.5 601C857 601 814 601 771.2 601C728.3 601 685.7 601 642.8 601C600 601 557 601 514.2 601C471.3 601 428.7 601 385.8 601C343 601 300 601 257.2 601C214.3 601 171.7 601 128.8 601C86 601 43 601 21.5 601L0 601Z" fill="#0066FF" stroke-linecap="round" stroke-linejoin="miter"></path></svg>