<svg id="visual" viewBox="0 0 900 600" width="900" height="600" xmlns="http://www.w3.org/2000/svg" xmlns:xlink="http://www.w3.org/1999/xlink" version="1.1"><path d="M0 481L21.5 488.8C43 496.7 86 512.3 128.8 518.3C171.7 524.3 214.3 520.7 257.2 502.5C300 484.3 343 451.7 385.8 454.8C428.7 458 471.3 497 514.2 515.5C557 534 600 532 642.8 530.5C685.7 529 728.3 528 771.2 522C814 516 857 505 878.5 499.5L900 494L900 601L878.5 601C857 601 814 601 771.2 601C728.3 601 685.7 601 642.8 601C600 601 557 601 514.2 601C471.3 601 428.7 601 385.8 601C343 601 300 601 257.2 601C214.3 601 171.7 601 128.8 601C86 601 43 601 21.5 601L0 601Z" fill="#0066FF" stroke-linecap="round" stroke-linejoin="miter"></path></svg>