<svg id="visual" viewBox="0 0 900 600" width="900" height="600" xmlns="http://www.w3.org/2000/svg" xmlns:xlink="http://www.w3.org/1999/xlink" version="1.1"><path d="M0 548L21.5 543.2C43 538.3 86 528.7 128.8 518.8C171.7 509 214.3 499 257.2 494.3C300 489.7 343 490.3 385.8 487.5C428.7 484.7 471.3 478.3 514.2 480C557 481.7 600 491.3 642.8 495.7C685.7 500 728.3 499 771.2 494C814 489 857 480 878.5 475.5L900 471L900 601L878.5 601C857 601 814 601 771.2 601C728.3 601 685.7 601 642.8 601C600 601 557 601 514.2 601C471.3 601 428.7 601 385.8 601C343 601 300 601 257.2 601C214.3 601 171.7 601 128.8 601C86 601 43 601 21.5 601L0 601Z" fill="#0066FF" stroke-linecap="round" stroke-linejoin="miter"></path></svg>